<?xml version="1.0" encoding="iso-8859-1"?>
<!-- Generator: Adobe Illustrator 19.0.0, SVG Export Plug-In . SVG Version: 6.00 Build 0)  -->
<svg xmlns="http://www.w3.org/2000/svg" xmlns:xlink="http://www.w3.org/1999/xlink" version="1.1" id="Layer_1" x="0px" y="0px" viewBox="0 0 511.997 511.997" style="enable-background:new 0 0 511.997 511.997;" xml:space="preserve" width="512" height="512">
<g id="XMLID_2070_">
	<g id="XMLID_2072_">
		<g id="XMLID_2073_">
			<polygon id="XMLID_2076_" style="fill:#48709B;" points="288.303,187.577 288.303,227.176 270.196,245.284 168.903,245.284      150.796,227.176 150.796,187.577    "/>
			<path id="XMLID_2079_" style="fill:#304E75;" d="M288.303,187.577v21.742l-9.59,9.583c-2.26,2.259-5.325,3.527-8.52,3.527     H168.905c-3.195,0-6.26-1.269-8.52-3.527l-9.59-9.583v-21.742H288.303z"/>
			<polygon id="XMLID_2080_" style="fill:#E94141;" points="168.905,210.373 150.8,192.269 150.8,90.978 168.905,72.874      270.195,72.874 288.3,90.978 288.3,192.269 270.195,210.373    "/>
			<polygon id="XMLID_2081_" style="fill:#C62525;" points="288.298,166.54 288.298,192.267 270.197,210.369 168.903,210.369      150.802,192.267 150.802,166.54 168.903,184.641 270.197,184.641    "/>
		</g>
		<g id="XMLID_2082_">
			<polygon id="XMLID_2085_" style="fill:#48709B;" points="176.082,381.418 176.082,421.017 157.975,439.124 56.692,439.124      38.584,421.017 38.584,381.418    "/>
			<path id="XMLID_2090_" style="fill:#304E75;" d="M176.082,381.418v21.742l-9.58,9.58c-2.26,2.26-5.326,3.53-8.523,3.53H56.687     c-3.197,0-6.262-1.27-8.523-3.53l-9.58-9.58v-21.742H176.082z"/>
			<polygon id="XMLID_2091_" style="fill:#E94141;" points="56.688,404.214 38.584,386.11 38.584,284.819 56.688,266.715      157.979,266.715 176.084,284.819 176.084,386.11 157.979,404.214    "/>
			<polygon id="XMLID_2092_" style="fill:#C62525;" points="176.081,360.38 176.081,386.108 157.98,404.21 56.686,404.21      38.584,386.108 38.584,360.38 56.686,378.482 157.98,378.482    "/>
		</g>
		<g id="XMLID_2093_">
			<polygon id="XMLID_2097_" style="fill:#48709B;" points="337.487,381.418 337.487,421.017 319.379,439.124 218.087,439.124      199.98,421.017 199.98,381.418    "/>
			<path id="XMLID_2100_" style="fill:#304E75;" d="M337.492,381.418v21.742l-9.59,9.583c-2.26,2.259-5.325,3.527-8.52,3.527     H218.094c-3.195,0-6.26-1.269-8.52-3.527l-9.59-9.583v-21.742H337.492z"/>
			<polygon id="XMLID_2102_" style="fill:#E94141;" points="218.093,404.214 199.989,386.11 199.989,284.819 218.093,266.715      319.384,266.715 337.488,284.819 337.488,386.11 319.384,404.214    "/>
			<polygon id="XMLID_2103_" style="fill:#C62525;" points="337.487,360.38 337.487,386.108 319.386,404.21 218.091,404.21      199.99,386.108 199.99,360.38 218.091,378.482 319.386,378.482    "/>
		</g>
		<g id="XMLID_2105_">
			<polygon id="XMLID_2111_" style="fill:#48709B;" points="499.383,381.418 499.383,421.017 481.276,439.124 379.993,439.124      361.885,421.017 361.885,381.418    "/>
			<path id="XMLID_2114_" style="fill:#304E75;" d="M499.383,381.418v21.742l-9.58,9.58c-2.26,2.26-5.326,3.53-8.523,3.53H379.988     c-3.197,0-6.262-1.27-8.523-3.53l-9.58-9.58v-21.742H499.383z"/>
			<polygon id="XMLID_2115_" style="fill:#E94141;" points="379.988,404.214 361.884,386.11 361.884,284.819 379.988,266.715      481.279,266.715 499.383,284.819 499.383,386.11 481.279,404.214    "/>
			<polygon id="XMLID_2116_" style="fill:#C62525;" points="499.383,360.38 499.383,386.108 481.282,404.21 379.988,404.21      361.886,386.108 361.886,360.38 379.988,378.482 481.282,378.482    "/>
		</g>
		<g id="XMLID_2117_">
			<polygon id="XMLID_2120_" style="fill:#48709B;" points="126.896,187.576 126.896,227.176 108.789,245.283 7.506,245.283      7.506,222.428 7.497,187.576    "/>
			<path id="XMLID_2133_" style="fill:#304E75;" d="M126.896,187.576v21.742l-9.587,9.578c-2.253,2.262-5.322,3.532-8.521,3.532     H7.506l-0.009-34.852H126.896z"/>
			<polygon id="XMLID_2139_" style="fill:#E4EAF6;" points="7.5,72.874 108.791,72.874 126.895,90.978 126.895,192.269      108.791,210.373 7.5,210.373    "/>
			<polygon id="XMLID_2143_" style="fill:#C7CFE2;" points="7.497,184.641 108.791,184.641 126.892,166.54 126.892,192.267      108.791,210.369 7.497,210.369    "/>
		</g>
		<g id="XMLID_2144_">
			<polygon id="XMLID_2149_" style="fill:#48709B;" points="450.194,187.577 450.194,227.176 432.087,245.284 330.804,245.284      312.697,227.176 312.697,187.577    "/>
			<path id="XMLID_2157_" style="fill:#304E75;" d="M450.194,187.577v21.742l-9.58,9.58c-2.26,2.26-5.326,3.53-8.523,3.53H330.799     c-3.197,0-6.262-1.27-8.523-3.53l-9.58-9.58v-21.742H450.194z"/>
			<polygon id="XMLID_2160_" style="fill:#E4EAF6;" points="330.799,210.373 312.695,192.269 312.695,90.978 330.799,72.874      432.09,72.874 450.194,90.978 450.194,192.269 432.09,210.373    "/>
			<polygon id="XMLID_2164_" style="fill:#C7CFE2;" points="450.194,166.54 450.194,192.267 432.093,210.369 330.799,210.369      312.698,192.267 312.698,166.54 330.799,184.641 432.093,184.641    "/>
		</g>
		<g id="XMLID_2168_">
			<polygon id="XMLID_2174_" style="fill:#48709B;" points="504.497,187.577 473.87,187.577 473.87,227.176 491.978,245.284      504.497,245.284    "/>
			<path id="XMLID_2182_" style="fill:#304E75;" d="M504.497,187.577H473.87v21.742l9.58,9.58c2.26,2.26,5.326,3.53,8.523,3.53     h12.524V187.577z"/>
			<polygon id="XMLID_2188_" style="fill:#E4EAF6;" points="504.497,72.874 491.973,72.874 473.869,90.978 473.869,192.269      491.973,210.373 504.497,210.373    "/>
			<polygon id="XMLID_2192_" style="fill:#C7CFE2;" points="504.497,184.641 491.973,184.641 473.871,166.54 473.871,192.267      491.973,210.369 504.497,210.369    "/>
		</g>
	</g>
	<g id="XMLID_2193_">
		<path id="XMLID_2195_" d="M163.601,250.585c1.406,1.407,3.314,2.197,5.303,2.197h101.291c1.989,0,3.897-0.79,5.303-2.197    l18.104-18.104c1.407-1.406,2.197-3.314,2.197-5.303v-136.2c0-1.989-0.79-3.897-2.197-5.303L275.499,67.57    c-1.406-1.407-3.314-2.197-5.303-2.197h-55.11c-4.142,0-7.5,3.358-7.5,7.5s3.358,7.5,7.5,7.5h52.003L280.8,94.084v95.078    l-13.711,13.711h-95.078L158.3,189.162V94.084l13.711-13.711h8.896c4.142,0,7.5-3.358,7.5-7.5s-3.358-7.5-7.5-7.5h-12.003    c-1.989,0-3.897,0.79-5.303,2.197l-18.104,18.104c-1.407,1.406-2.197,3.314-2.197,5.303v136.2c0,1.989,0.79,3.896,2.197,5.303    L163.601,250.585z M163.602,215.676c1.406,1.407,3.314,2.197,5.303,2.197h101.291c1.989,0,3.897-0.79,5.303-2.197l5.301-5.301    v13.696l-13.711,13.711h-95.078l-13.71-13.711v-13.696L163.602,215.676z"/>
		<path id="XMLID_2201_" d="M163.283,261.411c-1.406-1.407-3.314-2.197-5.303-2.197H56.688c-1.989,0-3.897,0.79-5.303,2.197    l-18.104,18.104c-1.407,1.407-2.197,3.314-2.197,5.303v136.2c0,1.989,0.79,3.896,2.197,5.303l18.104,18.104    c1.406,1.407,3.314,2.197,5.303,2.197h101.291c1.989,0,3.897-0.79,5.303-2.197l18.104-18.104c1.407-1.407,2.197-3.314,2.197-5.303    v-136.2c0-1.989-0.79-3.896-2.197-5.303L163.283,261.411z M46.084,287.925l13.71-13.711h95.078l13.71,13.711v95.078l-13.71,13.711    H59.795l-13.71-13.711V287.925z M154.873,431.623H59.795l-13.71-13.711v-13.696l5.301,5.301c1.406,1.407,3.314,2.197,5.303,2.197    h101.291c1.989,0,3.897-0.79,5.303-2.197l5.301-5.301v13.696L154.873,431.623z"/>
		<path id="XMLID_2205_" d="M324.687,261.411c-1.406-1.407-3.314-2.197-5.303-2.197h-35.557c-4.142,0-7.5,3.358-7.5,7.5    s3.358,7.5,7.5,7.5h32.45l13.711,13.711v95.078l-13.711,13.711H221.2l-13.711-13.711v-95.078l13.711-13.711h28.81    c4.142,0,7.5-3.358,7.5-7.5s-3.358-7.5-7.5-7.5h-31.917c-1.989,0-3.897,0.79-5.303,2.197l-18.104,18.104    c-1.407,1.406-2.197,3.314-2.197,5.303v136.2c0,1.989,0.79,3.897,2.197,5.303l18.104,18.104c1.406,1.407,3.314,2.197,5.303,2.197    h101.291c1.989,0,3.897-0.79,5.303-2.197l18.104-18.104c1.407-1.406,2.197-3.314,2.197-5.303v-136.2    c0-1.989-0.79-3.897-2.197-5.303L324.687,261.411z M316.277,431.623H221.2l-13.711-13.711v-13.696l5.301,5.301    c1.406,1.407,3.314,2.197,5.303,2.197h101.291c1.989,0,3.897-0.79,5.303-2.197l5.301-5.301v13.696L316.277,431.623z"/>
		<path id="XMLID_2208_" d="M506.883,284.819c0-1.989-0.79-3.896-2.197-5.303l-18.104-18.104c-1.406-1.407-3.314-2.197-5.303-2.197    H379.988c-1.989,0-3.897,0.79-5.303,2.197l-18.104,18.104c-1.407,1.407-2.197,3.314-2.197,5.303v136.2    c0,1.989,0.79,3.896,2.197,5.303l18.104,18.104c1.406,1.407,3.314,2.197,5.303,2.197h19.92c4.142,0,7.5-3.358,7.5-7.5    s-3.358-7.5-7.5-7.5h-16.813l-13.71-13.711v-13.696l5.301,5.301c1.406,1.407,3.314,2.197,5.303,2.197h101.291    c1.989,0,3.897-0.79,5.303-2.197l5.301-5.301v13.696l-13.711,13.711h-44.087c-4.142,0-7.5,3.358-7.5,7.5s3.358,7.5,7.5,7.5h47.193    c1.989,0,3.897-0.79,5.303-2.197l18.104-18.104c1.407-1.406,2.197-3.314,2.197-5.303L506.883,284.819z M491.883,383.003    l-13.71,13.711h-95.078l-13.71-13.711v-95.078l13.71-13.711h95.078l13.71,13.711V383.003z"/>
		<path id="XMLID_2213_" d="M182.458,117.003l15.046,56.163c0.878,3.279,3.85,5.559,7.245,5.559s6.366-2.28,7.245-5.559    l7.801-29.121l7.801,29.121c0.878,3.279,3.85,5.559,7.245,5.559s6.366-2.28,7.245-5.559l15.046-56.163    c1.072-4.001-1.303-8.114-5.304-9.186c-3.998-1.07-8.113,1.302-9.186,5.304l-7.801,29.121l-7.801-29.121    c-0.878-3.279-3.85-5.559-7.245-5.559s-6.366,2.28-7.245,5.559l-7.801,29.121l-7.801-29.121c-1.072-4.001-5.184-6.374-9.186-5.304    C183.761,108.89,181.387,113.002,182.458,117.003z"/>
		<path id="XMLID_2214_" d="M90.347,369.763c4.003,1.071,8.113-1.302,9.186-5.304l2.417-9.021h10.769l2.417,9.021    c0.898,3.351,3.928,5.561,7.24,5.561c0.643,0,1.296-0.083,1.946-0.257c4.001-1.072,6.375-5.185,5.304-9.186l-15.046-56.163    c-0.878-3.279-3.85-5.559-7.245-5.559s-6.366,2.28-7.245,5.559l-15.046,56.163C83.972,364.579,86.346,368.691,90.347,369.763z     M108.7,340.438h-2.732l1.366-5.1L108.7,340.438z"/>
		<path id="XMLID_2219_" d="M432.79,298.856h-14.088c-4.142,0-7.5,3.358-7.5,7.5v56.163c0,4.142,3.358,7.5,7.5,7.5h14.088    c9.526,0,17.276-7.75,17.276-17.275v-36.612C450.065,306.605,442.315,298.856,432.79,298.856z M435.065,352.743    c0,1.255-1.021,2.275-2.276,2.275h-6.588v-41.163h6.588c1.255,0,2.276,1.021,2.276,2.275V352.743z"/>
		<path id="XMLID_2224_" d="M274.185,313.856c0.188,3.975,3.47,7.14,7.492,7.14c4.142,0,7.5-3.358,7.5-7.5v-2.672    c0-6.599-5.369-11.968-11.968-11.968h-16.94c-6.599,0-11.968,5.369-11.968,11.968v19.145c0,6.599,5.369,11.968,11.968,11.968    h13.908v13.082h-10.885c-0.188-3.975-3.47-7.141-7.492-7.141c-4.142,0-7.5,3.358-7.5,7.5v2.672    c0,6.599,5.369,11.968,11.968,11.968h16.94c6.599,0,11.968-5.369,11.968-11.968v-19.145c0-6.599-5.369-11.968-11.968-11.968H263.3    v-13.081H274.185z"/>
		<path id="XMLID_2225_" d="M149.21,298.631c4.142,0,7.5-3.358,7.5-7.5v-0.862c0-4.142-3.358-7.5-7.5-7.5s-7.5,3.358-7.5,7.5v0.862    C141.71,295.273,145.068,298.631,149.21,298.631z"/>
		<path id="XMLID_2226_" d="M319.437,291.131v-0.862c0-4.142-3.358-7.5-7.5-7.5s-7.5,3.358-7.5,7.5v0.862c0,4.142,3.358,7.5,7.5,7.5    S319.437,295.273,319.437,291.131z"/>
		<path id="XMLID_2227_" d="M467.162,290.269v0.862c0,4.142,3.358,7.5,7.5,7.5s7.5-3.358,7.5-7.5v-0.862c0-4.142-3.358-7.5-7.5-7.5    S467.162,286.127,467.162,290.269z"/>
		<path id="XMLID_2228_" d="M114.094,250.585l18.104-18.104c1.407-1.407,2.197-3.314,2.197-5.303v-136.2    c0-1.989-0.79-3.897-2.197-5.303L114.094,67.57c-1.406-1.407-3.314-2.197-5.303-2.197H7.5c-4.142,0-7.5,3.358-7.5,7.5    s3.358,7.5,7.5,7.5h98.184l13.711,13.711v95.078l-13.711,13.711H7.5c-4.142,0-7.5,3.358-7.5,7.5s3.358,7.5,7.5,7.5h101.291    c1.989,0,3.897-0.79,5.303-2.197l5.301-5.301v13.696l-13.71,13.711H7.5c-4.142,0-7.5,3.358-7.5,7.5s3.358,7.5,7.5,7.5h101.291    C110.78,252.782,112.688,251.992,114.094,250.585z"/>
		<path id="XMLID_2229_" d="M325.496,250.585c1.406,1.407,3.314,2.197,5.303,2.197H432.09c1.989,0,3.897-0.79,5.303-2.197    l18.104-18.104c1.407-1.407,2.197-3.314,2.197-5.303v-136.2c0-1.989-0.79-3.896-2.197-5.303L437.394,67.57    c-1.406-1.407-3.314-2.197-5.303-2.197H330.799c-1.989,0-3.897,0.79-5.303,2.197l-18.104,18.104    c-1.407,1.407-2.197,3.314-2.197,5.303v136.2c0,1.989,0.79,3.896,2.197,5.303L325.496,250.585z M428.984,237.782h-95.078    l-13.71-13.711v-13.696l5.301,5.301c1.406,1.407,3.314,2.197,5.303,2.197H432.09c1.989,0,3.897-0.79,5.303-2.197l5.301-5.301    v13.696L428.984,237.782z M320.195,94.084l13.71-13.711h95.078l13.71,13.711v95.078l-13.71,13.711h-95.078l-13.71-13.711V94.084z"/>
		<path id="XMLID_2233_" d="M486.67,215.676c1.406,1.407,3.314,2.197,5.303,2.197h12.523c4.142,0,7.5-3.358,7.5-7.5    s-3.358-7.5-7.5-7.5h-9.417l-13.71-13.711V94.084l13.71-13.711h9.417c4.142,0,7.5-3.358,7.5-7.5s-3.358-7.5-7.5-7.5h-12.523    c-1.989,0-3.897,0.79-5.303,2.197l-18.104,18.104c-1.407,1.407-2.197,3.314-2.197,5.303v136.2c0,1.989,0.79,3.896,2.197,5.303    l18.104,18.104c1.406,1.407,3.314,2.197,5.303,2.197h12.523c4.142,0,7.5-3.358,7.5-7.5s-3.358-7.5-7.5-7.5h-9.417l-13.71-13.711    v-13.696L486.67,215.676z"/>
		<path id="XMLID_2234_" d="M107.522,97.291v-0.862c0-4.142-3.358-7.5-7.5-7.5s-7.5,3.358-7.5,7.5v0.862c0,4.142,3.358,7.5,7.5,7.5    S107.522,101.433,107.522,97.291z"/>
		<path id="XMLID_2238_" d="M262.748,104.791c4.142,0,7.5-3.358,7.5-7.5v-0.862c0-4.142-3.358-7.5-7.5-7.5s-7.5,3.358-7.5,7.5v0.862    C255.248,101.433,258.606,104.791,262.748,104.791z"/>
		<path id="XMLID_2239_" d="M425.474,104.791c4.142,0,7.5-3.358,7.5-7.5v-0.862c0-4.142-3.358-7.5-7.5-7.5s-7.5,3.358-7.5,7.5v0.862    C417.974,101.433,421.332,104.791,425.474,104.791z"/>
	</g>
</g>















</svg>
